<svg xmlns="http://www.w3.org/2000/svg" width="1200" height="1200" viewBox="0 0 1200 1200">
<defs>
  <linearGradient id="bg" x1="0" y1="0" x2="1" y2="1">
    <stop offset="0" stop-color="#f8faff"/><stop offset="1" stop-color="#dfe8ff"/>
  </linearGradient>
  <linearGradient id="dark" x1="0" y1="0" x2="1" y2="1">
    <stop offset="0" stop-color="#11152d"/><stop offset="1" stop-color="#2b214e"/>
  </linearGradient>
  <linearGradient id="phone" x1="0" y1="0" x2="1" y2="1">
    <stop offset="0" stop-color="#1a2036"/><stop offset="1" stop-color="#05070f"/>
  </linearGradient>
  <filter id="shadow"><feDropShadow dx="0" dy="12" stdDeviation="18" flood-opacity=".22"/></filter>
  <style>
    .b{font-family:Pretendard,'Noto Sans KR',Arial,sans-serif;font-weight:800}
    .r{font-family:Pretendard,'Noto Sans KR',Arial,sans-serif;font-weight:500}
  </style>
</defs>
<rect width="1200" height="1200" fill="url(#dark)"/>
<circle cx="900" cy="380" r="320" fill="#4a3b7d" opacity=".32"/>
<circle cx="980" cy="430" r="190" fill="#e30068" opacity=".13"/>
<rect x="760" y="135" width="270" height="610" rx="42" fill="url(#phone)" stroke="#8490ad" stroke-width="6" filter="url(#shadow)" transform="rotate(9 895 440)"/>
<circle cx="900" cy="305" r="70" fill="#3a4569"/>
<path d="M878 278 h44 v54 h-44z M888 286 h8 v8 h-8z M904 286 h8 v8 h-8z M888 302 h8 v8 h-8z M904 302 h8 v8 h-8z" fill="#fff"/>
<rect x="84" y="84" width="132" height="8" fill="#fff"/><rect x="84" y="84" width="8" height="132" fill="#fff"/>
<rect x="984" y="84" width="132" height="8" fill="#fff"/><rect x="1108" y="84" width="8" height="132" fill="#fff"/>
<rect x="84" y="806" width="8" height="132" fill="#fff"/><rect x="84" y="930" width="132" height="8" fill="#fff"/>
<rect x="1108" y="806" width="8" height="132" fill="#fff"/><rect x="984" y="930" width="132" height="8" fill="#fff"/>
<text x="145" y="250" class="b" font-size="48" fill="#69f5a6">U+ AI 비즈콜 활용하여</text>
<text x="145" y="390" class="b" font-size="86" fill="#fff">사무실 전화를</text>
<text x="145" y="505" class="b" font-size="94" fill="#fff">스마트폰으로</text>
<text x="145" y="635" class="b" font-size="100" fill="#fff" stroke="#e30068" stroke-width="7" paint-order="stroke">AI 비즈콜</text>
<rect x="100" y="860" width="1000" height="128" rx="10" fill="#69f5a6"/>
<text x="150" y="942" class="b" font-size="52" fill="#1d2235">유비즈   1661-7372</text>
</svg>