<svg xmlns="http://www.w3.org/2000/svg" width="1200" height="1200" viewBox="0 0 1200 1200">
<defs>
  <linearGradient id="bg" x1="0" y1="0" x2="1" y2="1">
    <stop offset="0" stop-color="#f8faff"/><stop offset="1" stop-color="#dfe8ff"/>
  </linearGradient>
  <linearGradient id="dark" x1="0" y1="0" x2="1" y2="1">
    <stop offset="0" stop-color="#11152d"/><stop offset="1" stop-color="#2b214e"/>
  </linearGradient>
  <linearGradient id="phone" x1="0" y1="0" x2="1" y2="1">
    <stop offset="0" stop-color="#1a2036"/><stop offset="1" stop-color="#05070f"/>
  </linearGradient>
  <filter id="shadow"><feDropShadow dx="0" dy="12" stdDeviation="18" flood-opacity=".22"/></filter>
  <style>
    .b{font-family:Pretendard,'Noto Sans KR',Arial,sans-serif;font-weight:800}
    .r{font-family:Pretendard,'Noto Sans KR',Arial,sans-serif;font-weight:500}
  </style>
</defs>
<rect width="1200" height="1200" fill="url(#bg)"/>
<rect x="55" y="60" width="690" height="245" rx="34" fill="#fff" filter="url(#shadow)"/>
<text x="90" y="150" class="b" font-size="60" fill="#281d78">업무시간이 끝나면</text>
<text x="90" y="235" class="b" font-size="60" fill="#e30068">방해금지 모드</text>
<g transform="translate(700 260)" filter="url(#shadow)">
  <rect x="0" y="0" width="340" height="650" rx="48" fill="#111827"/>
  <rect x="22" y="70" width="296" height="540" rx="28" fill="#fff"/>
  <text x="48" y="145" class="b" font-size="34" fill="#1f2430">방해금지 모드</text>
  <rect x="48" y="220" width="240" height="92" rx="46" fill="#ececf6"/>
  <circle cx="244" cy="266" r="36" fill="#6a42db"/>
  <path d="M95 420 a56 56 0 1 0 0 -1" fill="#eef0ff"/>
  <path d="M86 392 q38 26 68 0" fill="none" stroke="#6a42db" stroke-width="12"/>
</g>

<rect x="0" y="1038" width="1200" height="162" fill="#321b7e"/>
<rect x="0" y="1038" width="1200" height="18" fill="#e30068"/>
<text x="58" y="1122" class="b" font-size="44" fill="#fff">유비즈</text>
<text x="225" y="1120" class="r" font-size="25" fill="#e9e4ff">기업통신전담센터</text>
<text x="1140" y="1114" text-anchor="end" class="b" font-size="54" fill="#fff">1661-7372</text>
<text x="1140" y="1158" text-anchor="end" class="r" font-size="22" fill="#ded7ff">u-biz.co.kr</text></svg>